<?xml version="1.0" encoding="iso-8859-1"?>
<!-- Uploaded to: SVG Repo, www.svgrepo.com, Generator: SVG Repo Mixer Tools -->
<svg version="1.1" id="Layer_1" xmlns="http://www.w3.org/2000/svg" xmlns:xlink="http://www.w3.org/1999/xlink" 
	 viewBox="0 0 512.006 512.006" xml:space="preserve">
<path style="fill:#003C61;" d="M464.699,86.016H47.301C21.219,86.016,0,107.235,0,133.317v245.372
	c0,26.082,21.219,47.301,47.301,47.301h417.398c26.082,0,47.301-21.219,47.301-47.301V133.317
	C512,107.236,490.78,86.016,464.699,86.016z"/>
<path style="fill:#0066A6;" d="M255.999,86.016H47.301C21.219,86.016,0,107.235,0,133.317v245.372
	c0,26.082,21.219,47.301,47.301,47.301h208.699V86.016z"/>
<rect y="242.94" style="fill:#ACACB2;" width="512.006" height="115.714"/>
<rect y="242.94" style="fill:#E1E1E3;" width="256.003" height="115.714"/>
<path style="fill:#940009;" d="M211.26,157.855c0,14.366-11.646,26.011-26.011,26.011H91.608c-14.366,0-26.011-11.646-26.011-26.011
	l0,0c0-14.366,11.646-26.011,26.011-26.011h93.641C199.614,131.843,211.26,143.489,211.26,157.855L211.26,157.855z"/>
<path style="fill:#3B4E56;" d="M333.707,333.051c-0.008,0-0.016,0-0.023,0l-257.708-0.366c-9.22-0.013-16.683-7.498-16.671-16.718
	c0.013-9.211,7.486-16.671,16.694-16.671c0.009,0,0.016,0,0.024,0l257.708,0.366c9.22,0.013,16.683,7.498,16.671,16.718
	C350.389,325.592,342.917,333.051,333.707,333.051z"/>
<path style="fill:#4F6873;" d="M204.855,299.479l-128.829-0.184c-0.009,0-0.016,0-0.024,0c-9.209,0-16.681,7.459-16.694,16.671
	c-0.013,9.221,7.45,16.706,16.671,16.718l128.877,0.184V299.479z"/>
<path style="fill:#FF0029;" d="M138.428,131.843h-46.82c-14.366,0-26.011,11.646-26.011,26.012l0,0
	c0,14.366,11.646,26.011,26.011,26.011h46.821v-52.023H138.428z"/>
</svg>