<svg width="13px" height="22px" viewBox="0 0 13 22" version="1.1" xmlns="http://www.w3.org/2000/svg" xmlns:xlink="http://www.w3.org/1999/xlink">
    <!-- Generator: Sketch 39.1 (31720) - http://www.bohemiancoding.com/sketch -->
    <title>Z</title>
    <desc>Created with Sketch.</desc>
    <defs>
        <polygon id="path-1" points="6.43514847 21.9746258 0 21.9746258 0 0 6.43514847 0 12.8702969 0 12.8702969 21.9746258"></polygon>
    </defs>
    <g id="Symbols" stroke="none" stroke-width="1" fill="black" fill-rule="evenodd">
        <g id="Z">
            <g>
                <!-- <mask id="mask-2" fill="black">
                    <use xlink:href="#path-1"></use>
                </mask> -->
                <g id="Clip-2"></g>
                <path d="M7.86219264,21.9746258 L5.26089509,21.9746258 C5.01714049,21.9746258 4.81887055,21.7763221 4.81887055,21.5326012 L4.81887055,19.0010153 L0.61032454,19.0010153 C0.273778528,19.0010153 -6.74846626e-06,18.7272301 -6.74846626e-06,18.3906503 L-6.74846626e-06,16.3452239 C-6.74846626e-06,16.2093098 0.0461527607,16.0755552 0.129968712,15.9686595 L7.58209755,6.46196012 L0.943732515,6.46196012 C0.607186503,6.46196012 0.333333742,6.18817485 0.333333742,5.85162883 L0.333333742,3.58397546 C0.333333742,3.24742945 0.607186503,2.97361043 0.943732515,2.97361043 L4.81650859,2.97361043 L4.81650859,0.44202454 C4.81650859,0.198303681 5.01477853,0 5.25856687,0 L7.85983067,0 C8.10355153,0 8.30185521,0.198303681 8.30185521,0.44202454 L8.30185521,2.97361043 L12.2599319,2.97361043 C12.5964779,2.97361043 12.8702969,3.24742945 12.8702969,3.58397546 L12.8702969,5.54038957 C12.8702969,5.67596626 12.8243061,5.80945092 12.7408613,5.91627914 L5.24125706,15.5125307 L12.2599319,15.5119571 C12.5965117,15.5119571 12.8702969,15.7857423 12.8702969,16.1222883 L12.8702969,18.3899417 C12.8702969,18.7264877 12.5965117,19.000273 12.2599656,19.000273 L8.30421718,19.0009479 L8.30421718,21.5326012 C8.30421718,21.7763221 8.1059135,21.9746258 7.86219264,21.9746258" id="Fill-1" fill="#6d1fd3" mask="url(#mask-2)"></path>
            </g>
        </g>
    </g>
</svg> 

